<svg width="44" height="44" viewBox="0 0 44 44" fill="none" xmlns="http://www.w3.org/2000/svg">
<path d="M23.0497 9.2237C22.9133 9.22517 22.7779 9.19977 22.6513 9.14892C22.5247 9.09808 22.4094 9.0228 22.3119 8.92738C22.2144 8.83195 22.1366 8.71826 22.0831 8.59278C22.0295 8.46731 22.0012 8.33252 21.9997 8.1961C21.9997 4.2201 25.2925 1.0001 29.3469 1.0001C29.4834 0.998246 29.619 1.0234 29.7457 1.07411C29.8725 1.12482 29.988 1.20009 30.0856 1.29558C30.1831 1.39108 30.2609 1.50492 30.3143 1.63056C30.3677 1.7562 30.3958 1.89117 30.3969 2.0277C30.3969 6.0037 27.1069 9.2237 23.0497 9.2237ZM38.3797 30.8705C38.7857 31.1673 38.9173 31.7105 38.6877 32.1529C34.9917 39.3937 32.0433 43.0001 29.3497 43.0001C28.0953 43.0001 26.8633 42.6025 25.6621 41.8297C24.8 41.2762 23.8016 40.9717 22.7773 40.95C21.753 40.9282 20.7426 41.1901 19.8577 41.7065C18.4017 42.5605 17.0157 43.0001 15.6997 43.0001C11.7377 43.0001 5.19971 31.0525 5.19971 24.4977C5.19971 17.4977 8.94891 12.1609 14.6497 12.1609C17.3321 12.1609 19.6477 12.5473 21.5937 13.3341C22.4169 13.6645 23.3493 13.6421 24.1529 13.2641C25.7321 12.5193 27.8153 12.1609 30.3969 12.1609C33.5525 12.1609 36.3049 13.7009 38.5897 16.6829C38.6724 16.7904 38.7326 16.9135 38.7668 17.0447C38.8011 17.1759 38.8086 17.3127 38.789 17.4469C38.7694 17.5811 38.7231 17.71 38.6528 17.826C38.5825 17.942 38.4896 18.0427 38.3797 18.1221C35.8289 19.9981 34.5997 22.1009 34.5997 24.4977C34.5997 26.8917 35.8289 28.9973 38.3797 30.8705Z" fill="black"/>
</svg>
