<svg width="80" height="80" viewBox="0 0 80 80" fill="none" xmlns="http://www.w3.org/2000/svg">
<path d="M40 80C57.5261 80 67.2729 80 73.6365 73.6365C80 67.2729 80 57.5309 80 40C80 22.4691 80 12.7271 73.6365 6.36353C67.2729 4.57672e-06 57.5309 0 40 0C22.4691 0 12.7271 4.57672e-06 6.36353 6.36353C0 12.7271 0 22.4691 0 40C0 57.5309 0 67.2729 6.36353 73.6365C12.7271 80 22.4691 80 40 80Z" fill="black"/>
<path d="M55.0211 32.0912C51.9977 32.0912 49.7566 34.4235 49.7566 37.3029C49.7566 39.6545 51.4074 41.4877 53.4998 42.03L49.2095 48.5999H53.2167L56.8639 42.4859H59.5946V48.5999H62.9395V32.0912H55.0211ZM55.4818 39.6881C54.1045 39.6881 53.2551 38.6083 53.2551 37.3797C53.2551 36.1512 54.0325 34.9802 55.4818 34.9802H59.5994V39.6881H55.4818Z" fill="white"/>
<path d="M36.7131 32.0912L35.6045 35.1434L40.1588 35.1194L37.4617 45.0102C36.6939 47.8944 39.6981 50.0732 42.2656 48.3792L48.0964 44.4247L46.3783 41.9005L40.5523 45.9365L44.4779 32.096H36.7131V32.0912Z" fill="white"/>
<path d="M45.3079 27.8825C45.3079 29.0343 44.7992 29.9653 42.9948 29.9653C41.1903 29.9653 40.6816 29.0295 40.6816 27.8825C40.6816 26.7355 41.2719 25.7997 42.9948 25.7997C44.7176 25.7997 45.3079 26.7355 45.3079 27.8825Z" fill="white"/>
<path d="M31.1886 45.5429V28.2567H18.356V37.4853C18.356 41.8284 17.0986 44.5111 16.3548 45.5429H14.8335V53.0917H18.0872V48.6287H30.2528V53.0917H33.5066V45.5429H31.1838H31.1886ZM21.5905 37.2981V31.3233H27.8437V45.5429H19.7621C20.5012 44.3431 21.5857 41.2909 21.5857 37.2981" fill="white"/>
</svg>
