<svg width="32" height="32" viewBox="0 0 32 32" fill="none" xmlns="http://www.w3.org/2000/svg">
<path d="M16 32C23.0104 32 26.9092 32 29.4546 29.4546C32 26.9092 32 23.0124 32 16C32 8.98766 32 5.09082 29.4546 2.54541C26.9092 1.83069e-06 23.0124 0 16 0C8.98764 0 5.09082 1.83069e-06 2.54541 2.54541C0 5.09082 0 8.98766 0 16C0 23.0124 0 26.9092 2.54541 29.4546C5.09082 32 8.98764 32 16 32Z" fill="black"/>
<path d="M22.0082 12.8365C20.7989 12.8365 19.9024 13.7695 19.9024 14.9212C19.9024 15.8619 20.5628 16.5952 21.3997 16.8121L19.6836 19.44H21.2865L22.7454 16.9944H23.8376V19.44H25.1756V12.8365H22.0082ZM22.1925 15.8753C21.6416 15.8753 21.3018 15.4434 21.3018 14.952C21.3018 14.4605 21.6128 13.9922 22.1925 13.9922H23.8396V15.8753H22.1925Z" fill="white"/>
<path d="M14.6851 12.8365L14.2417 14.0574L16.0634 14.0478L14.9846 18.0042C14.6775 19.1578 15.8791 20.0294 16.9061 19.3517L19.2385 17.77L18.5512 16.7603L16.2208 18.3747L17.7911 12.8385H14.6851V12.8365Z" fill="white"/>
<path d="M18.123 11.153C18.123 11.6137 17.9195 11.9861 17.1977 11.9861C16.4759 11.9861 16.2725 11.6117 16.2725 11.153C16.2725 10.6942 16.5086 10.3198 17.1977 10.3198C17.8869 10.3198 18.123 10.6942 18.123 11.153Z" fill="white"/>
<path d="M12.4756 18.2172V11.3027H7.34259V14.9942C7.34259 16.7314 6.83965 17.8045 6.54211 18.2172H5.93359V21.2367H7.23509V19.4515H12.1013V21.2367H13.4028V18.2172H12.4737H12.4756ZM8.63641 14.9193V12.5294H11.1377V18.2172H7.90504C8.20066 17.7373 8.63449 16.5164 8.63449 14.9193" fill="white"/>
</svg>
