<svg width="44" height="44" viewBox="0 0 44 44" fill="none" xmlns="http://www.w3.org/2000/svg">
<path d="M5.61717 13.7683C7.14252 10.7309 9.48252 8.17756 12.3756 6.39365C15.2687 4.60974 18.601 3.66556 21.9998 3.66663C26.9407 3.66663 31.0913 5.48346 34.2648 8.44246L29.0087 13.7005C27.1075 11.8836 24.6912 10.9578 21.9998 10.9578C17.224 10.9578 13.1815 14.1845 11.7423 18.5166C11.3757 19.6166 11.1667 20.79 11.1667 22C11.1667 23.21 11.3757 24.3833 11.7423 25.4833C13.1833 29.8173 17.224 33.0421 21.9998 33.0421C24.4657 33.0421 26.5648 32.3913 28.2075 31.2913C29.1598 30.6643 29.9751 29.8507 30.604 28.8997C31.233 27.9487 31.6626 26.88 31.8668 25.7583H21.9998V18.667H39.2662C39.4825 19.866 39.5998 21.1163 39.5998 22.4161C39.5998 28.0005 37.6015 32.7011 34.1328 35.8911C31.1005 38.6925 26.9498 40.3333 21.9998 40.3333C19.592 40.3343 17.2076 39.8607 14.9828 38.9397C12.7581 38.0187 10.7367 36.6683 9.03406 34.9657C7.33147 33.2631 5.98108 31.2417 5.06008 29.017C4.13909 26.7922 3.66554 24.4078 3.66651 22C3.66651 19.041 4.37417 16.2433 5.61717 13.7683Z" fill="black"/>
</svg>
