<svg width="32" height="32" viewBox="0 0 32 32" fill="none" xmlns="http://www.w3.org/2000/svg">
<path fill-rule="evenodd" clip-rule="evenodd" d="M6.4262 6.49516L9.3349 15.068H23.9702L6.4262 6.49516ZM23.9702 16.932H9.3349L6.4262 25.5049L23.9702 16.932ZM7.68275 16L4.49484 6.60422C4.39501 6.31607 4.37555 6.00614 4.4386 5.70771C4.50202 5.40753 4.64649 5.13047 4.85631 4.90664L4.85638 4.90657C5.07459 4.67384 5.35744 4.51172 5.66855 4.44107C5.97966 4.37041 6.30479 4.39446 6.60212 4.5101C6.62632 4.51952 6.65012 4.52994 6.67345 4.54134L28.4095 15.1627C28.7294 15.319 28.9323 15.644 28.9323 16C28.9323 16.3561 28.7294 16.6811 28.4095 16.8374L6.67345 27.4588C6.65012 27.4702 6.62632 27.4806 6.60212 27.49C6.30479 27.6056 5.97966 27.6297 5.66855 27.559C5.35743 27.4884 5.07458 27.3262 4.85638 27.0935L4.85631 27.0935C4.64649 26.8696 4.50202 26.5926 4.4386 26.2924C4.37555 25.994 4.39501 25.684 4.49484 25.3959L7.68275 16Z" fill="#181818"/>
</svg>
