<svg width="40" height="41" viewBox="0 0 40 41" fill="none" xmlns="http://www.w3.org/2000/svg">
<path d="M32.3833 21.802C32.45 21.2687 32.5 20.7354 32.5 20.1687C32.5 19.602 32.45 19.0687 32.3833 18.5354L35.9 15.7854C36.2166 15.5354 36.3 15.0854 36.1 14.7187L32.7666 8.95203C32.6684 8.78007 32.5121 8.64873 32.3258 8.58154C32.1395 8.51435 31.9354 8.5157 31.75 8.58536L27.6 10.252C26.7333 9.58536 25.8 9.03536 24.7833 8.6187L24.15 4.20203C24.1224 4.00593 24.0242 3.82663 23.8739 3.69776C23.7235 3.56888 23.5313 3.49929 23.3333 3.50203H16.6666C16.25 3.50203 15.9 3.80203 15.85 4.20203L15.2166 8.6187C14.2 9.03536 13.2666 9.60203 12.4 10.252L8.24998 8.58536C8.15334 8.55258 8.05202 8.53569 7.94998 8.53536C7.66664 8.53536 7.38331 8.68536 7.23331 8.95203L3.89998 14.7187C3.68331 15.0854 3.78331 15.5354 4.09998 15.7854L7.61664 18.5354C7.54998 19.0687 7.49998 19.6187 7.49998 20.1687C7.49998 20.7187 7.54998 21.2687 7.61664 21.802L4.09998 24.552C3.78331 24.802 3.69998 25.252 3.89998 25.6187L7.23331 31.3854C7.33156 31.5573 7.48784 31.6887 7.67414 31.7559C7.86044 31.823 8.06458 31.8217 8.24998 31.752L12.4 30.0854C13.2666 30.752 14.2 31.302 15.2166 31.7187L15.85 36.1354C15.9 36.5354 16.25 36.8354 16.6666 36.8354H23.3333C23.75 36.8354 24.1 36.5354 24.15 36.1354L24.7833 31.7187C25.8 31.302 26.7333 30.7354 27.6 30.0854L31.75 31.752C31.85 31.7854 31.95 31.802 32.05 31.802C32.3333 31.802 32.6166 31.652 32.7666 31.3854L36.1 25.6187C36.3 25.252 36.2166 24.802 35.9 24.552L32.3833 21.802ZM29.0833 18.952C29.15 19.4687 29.1666 19.8187 29.1666 20.1687C29.1666 20.5187 29.1333 20.8854 29.0833 21.3854L28.85 23.2687L30.3333 24.4354L32.1333 25.8354L30.9666 27.852L28.85 27.002L27.1166 26.302L25.6166 27.4354C24.9 27.9687 24.2166 28.3687 23.5333 28.652L21.7666 29.3687L21.5 31.252L21.1666 33.502H18.8333L18.5166 31.252L18.25 29.3687L16.4833 28.652C15.7666 28.352 15.1 27.9687 14.4333 27.4687L12.9166 26.302L11.15 27.0187L9.03331 27.8687L7.86664 25.852L9.66664 24.452L11.15 23.2854L10.9166 21.402C10.8666 20.8854 10.8333 20.502 10.8333 20.1687C10.8333 19.8354 10.8666 19.452 10.9166 18.952L11.15 17.0687L9.66664 15.902L7.86664 14.502L9.03331 12.4854L11.15 13.3354L12.8833 14.0354L14.3833 12.902C15.1 12.3687 15.7833 11.9687 16.4666 11.6854L18.2333 10.9687L18.5 9.08536L18.8333 6.83536H21.15L21.4666 9.08536L21.7333 10.9687L23.5 11.6854C24.2166 11.9854 24.8833 12.3687 25.55 12.8687L27.0666 14.0354L28.8333 13.3187L30.95 12.4687L32.1166 14.4854L30.3333 15.902L28.85 17.0687L29.0833 18.952ZM20 13.502C16.3166 13.502 13.3333 16.4854 13.3333 20.1687C13.3333 23.852 16.3166 26.8354 20 26.8354C23.6833 26.8354 26.6666 23.852 26.6666 20.1687C26.6666 16.4854 23.6833 13.502 20 13.502ZM20 23.502C18.1666 23.502 16.6666 22.002 16.6666 20.1687C16.6666 18.3354 18.1666 16.8354 20 16.8354C21.8333 16.8354 23.3333 18.3354 23.3333 20.1687C23.3333 22.002 21.8333 23.502 20 23.502Z" fill="#181818"/>
</svg>
