<svg width="40" height="40" viewBox="0 0 40 40" fill="none" xmlns="http://www.w3.org/2000/svg">
<path d="M24.5556 20.6667L22.9445 19.0556C23.1112 18.1852 22.8612 17.3704 22.1945 16.6111C21.5278 15.8519 20.6667 15.5556 19.6112 15.7222L18.0001 14.1111C18.3149 13.963 18.6343 13.8519 18.9584 13.7778C19.2825 13.7037 19.6297 13.6667 20.0001 13.6667C21.3889 13.6667 22.5695 14.1528 23.5417 15.125C24.5139 16.0972 25.0001 17.2778 25.0001 18.6667C25.0001 19.037 24.963 19.3843 24.8889 19.7083C24.8149 20.0324 24.7038 20.3519 24.5556 20.6667ZM28.1112 24.1667L26.5001 22.6111C27.2038 22.0741 27.8288 21.4861 28.3751 20.8472C28.9214 20.2083 29.3889 19.4815 29.7778 18.6667C28.8519 16.7963 27.5232 15.3102 25.7917 14.2083C24.0602 13.1065 22.1297 12.5556 20.0001 12.5556C19.463 12.5556 18.9352 12.5926 18.4167 12.6667C17.8982 12.7407 17.3889 12.8519 16.8889 13L15.1667 11.2778C15.926 10.963 16.7038 10.7269 17.5001 10.5694C18.2964 10.412 19.1297 10.3333 20.0001 10.3333C22.7964 10.3333 25.2871 11.1065 27.4723 12.6528C29.6575 14.1991 31.2408 16.2037 32.2223 18.6667C31.7964 19.7593 31.2362 20.7731 30.5417 21.7083C29.8473 22.6435 29.0371 23.463 28.1112 24.1667ZM28.6667 31L24.0001 26.3889C23.3519 26.5926 22.6991 26.7454 22.0417 26.8472C21.3843 26.9491 20.7038 27 20.0001 27C17.2038 27 14.713 26.2269 12.5278 24.6806C10.3426 23.1343 8.75931 21.1296 7.77783 18.6667C8.16672 17.6852 8.65746 16.7731 9.25005 15.9306C9.84265 15.088 10.5186 14.3333 11.2778 13.6667L8.22228 10.5556L9.77783 9L30.2223 29.4444L28.6667 31ZM12.8334 15.2222C12.2964 15.7037 11.8056 16.2315 11.3612 16.8056C10.9167 17.3796 10.5371 18 10.2223 18.6667C11.1482 20.537 12.4769 22.0231 14.2084 23.125C15.9399 24.2269 17.8704 24.7778 20.0001 24.7778C20.3704 24.7778 20.7315 24.7546 21.0834 24.7083C21.4352 24.662 21.7964 24.6111 22.1667 24.5556L21.1667 23.5C20.963 23.5556 20.7686 23.5972 20.5834 23.625C20.3982 23.6528 20.2038 23.6667 20.0001 23.6667C18.6112 23.6667 17.4306 23.1806 16.4584 22.2083C15.4862 21.2361 15.0001 20.0556 15.0001 18.6667C15.0001 18.463 15.0139 18.2685 15.0417 18.0833C15.0695 17.8981 15.1112 17.7037 15.1667 17.5L12.8334 15.2222Z" fill="#181818"/>
</svg>
