<svg width="40" height="40" viewBox="0 0 40 40" fill="none" xmlns="http://www.w3.org/2000/svg">
<path d="M19.9999 24.8C21.3333 24.8 22.4666 24.3333 23.3999 23.4C24.3333 22.4667 24.7999 21.3333 24.7999 20C24.7999 18.6667 24.3333 17.5333 23.3999 16.6C22.4666 15.6667 21.3333 15.2 19.9999 15.2C18.6666 15.2 17.5333 15.6667 16.5999 16.6C15.6666 17.5333 15.1999 18.6667 15.1999 20C15.1999 21.3333 15.6666 22.4667 16.5999 23.4C17.5333 24.3333 18.6666 24.8 19.9999 24.8ZM19.9999 22.88C19.1999 22.88 18.5199 22.6 17.9599 22.04C17.3999 21.48 17.1199 20.8 17.1199 20C17.1199 19.2 17.3999 18.52 17.9599 17.96C18.5199 17.4 19.1999 17.12 19.9999 17.12C20.7999 17.12 21.4799 17.4 22.0399 17.96C22.5999 18.52 22.8799 19.2 22.8799 20C22.8799 20.8 22.5999 21.48 22.0399 22.04C21.4799 22.6 20.7999 22.88 19.9999 22.88ZM19.9999 28C17.4044 28 15.0399 27.2756 12.9066 25.8267C10.7733 24.3778 9.2266 22.4356 8.2666 20C9.2266 17.5644 10.7733 15.6222 12.9066 14.1733C15.0399 12.7244 17.4044 12 19.9999 12C22.5955 12 24.9599 12.7244 27.0933 14.1733C29.2266 15.6222 30.7733 17.5644 31.7333 20C30.7733 22.4356 29.2266 24.3778 27.0933 25.8267C24.9599 27.2756 22.5955 28 19.9999 28ZM19.9999 25.8667C22.0088 25.8667 23.8533 25.3378 25.5333 24.28C27.2133 23.2222 28.4977 21.7956 29.3866 20C28.4977 18.2044 27.2133 16.7778 25.5333 15.72C23.8533 14.6622 22.0088 14.1333 19.9999 14.1333C17.991 14.1333 16.1466 14.6622 14.4666 15.72C12.7866 16.7778 11.5022 18.2044 10.6133 20C11.5022 21.7956 12.7866 23.2222 14.4666 24.28C16.1466 25.3378 17.991 25.8667 19.9999 25.8667Z" fill="#181818"/>
</svg>
